<svg width="75" height="74" viewBox="0 0 75 74" fill="none" xmlns="http://www.w3.org/2000/svg">
<path d="M37.5084 18.0273C26.867 18.0273 18.2836 26.4982 18.2836 37C18.2836 47.5018 26.867 55.9727 37.5084 55.9727C48.1497 55.9727 56.7331 47.5018 56.7331 37C56.7331 26.4982 48.1497 18.0273 37.5084 18.0273ZM37.5084 49.3347C30.6316 49.3347 25.0098 43.8031 25.0098 37C25.0098 30.1969 30.6149 24.6653 37.5084 24.6653C44.4018 24.6653 50.007 30.1969 50.007 37C50.007 43.8031 44.3851 49.3347 37.5084 49.3347ZM62.0036 17.2513C62.0036 19.7116 59.9958 21.6766 57.5195 21.6766C55.0265 21.6766 53.0354 19.6951 53.0354 17.2513C53.0354 14.8074 55.0432 12.826 57.5195 12.826C59.9958 12.826 62.0036 14.8074 62.0036 17.2513ZM74.7365 21.7426C74.452 15.8147 73.08 10.5638 68.6796 6.23753C64.2959 1.9113 58.9752 0.557291 52.9685 0.260069C46.7777 -0.0866897 28.2223 -0.0866897 22.0315 0.260069C16.0416 0.540779 10.7209 1.89479 6.32041 6.22102C1.91997 10.5472 0.564696 15.7982 0.263525 21.7261C-0.0878416 27.8357 -0.0878416 46.1478 0.263525 52.2574C0.547964 58.1853 1.91997 63.4362 6.32041 67.7625C10.7209 72.0887 16.0248 73.4427 22.0315 73.7399C28.2223 74.0867 46.7777 74.0867 52.9685 73.7399C58.9752 73.4592 64.2959 72.1052 68.6796 67.7625C73.0633 63.4362 74.4353 58.1853 74.7365 52.2574C75.0878 46.1478 75.0878 27.8522 74.7365 21.7426ZM66.7387 58.8128C65.4336 62.0492 62.9071 64.5426 59.611 65.847C54.6751 67.779 42.9629 67.3331 37.5084 67.3331C32.0538 67.3331 20.3249 67.7625 15.4057 65.847C12.1263 64.5591 9.59983 62.0657 8.27803 58.8128C6.32041 53.9416 6.77217 42.383 6.77217 37C6.77217 31.617 6.33714 20.0418 8.27803 15.1872C9.5831 11.9508 12.1096 9.45744 15.4057 8.15296C20.3416 6.22102 32.0538 6.66685 37.5084 6.66685C42.9629 6.66685 54.6919 6.23753 59.611 8.15296C62.8904 9.44092 65.4169 11.9343 66.7387 15.1872C68.6963 20.0584 68.2446 31.617 68.2446 37C68.2446 42.383 68.6963 53.9582 66.7387 58.8128Z" fill="#E8DCCC"/>
</svg>
