<svg width="75" height="74" viewBox="0 0 75 74" fill="none" xmlns="http://www.w3.org/2000/svg">
<path d="M73.4993 1.14514C72.9049 0.583375 72.1812 0.210328 71.4066 0.066449C70.6321 -0.0774296 69.8364 0.0133529 69.1057 0.328952L2.7373 28.8455C1.8697 29.2183 1.1358 29.8883 0.64541 30.7553C0.155021 31.6223 -0.0654866 32.6396 0.0168856 33.6551C0.0992577 34.6706 0.480079 35.6296 1.10236 36.3887C1.72465 37.1477 2.55494 37.6659 3.46898 37.8658L21.4833 41.8065V66.1258C21.4743 67.0614 21.7238 67.9782 22.1991 68.7562C22.6744 69.5342 23.3534 70.137 24.1472 70.486C24.679 70.7295 25.2495 70.8557 25.826 70.8574C26.3894 70.8554 26.9468 70.7312 27.4659 70.4918C27.985 70.2524 28.4555 69.9026 28.85 69.4628L39.1335 58.2157L54.3066 72.8193C55.0885 73.5788 56.0976 73.9988 57.1433 74C57.5978 73.9994 58.0495 73.921 58.482 73.7676C59.1951 73.5203 59.8365 73.0727 60.3421 72.4696C60.8478 71.8665 61.2 71.1289 61.3636 70.3304L74.8898 5.77607C75.0664 4.93888 75.0302 4.0648 74.7851 3.24851C74.54 2.43221 74.0953 1.70483 73.4993 1.14514ZM2.88251 33.377C2.84673 33.0371 2.91679 32.694 3.08136 32.4031C3.24594 32.1122 3.49541 31.8905 3.78944 31.7738L64.6264 5.63387L22.5881 38.8396L4.03315 34.7808C3.72493 34.7225 3.44369 34.5522 3.2349 34.2975C3.0261 34.0427 2.90195 33.7184 2.88251 33.377ZM26.8156 67.2381C26.6145 67.4581 26.3582 67.608 26.0792 67.6687C25.8002 67.7294 25.511 67.6982 25.2481 67.5792C24.9853 67.4601 24.7607 67.2585 24.6026 66.9998C24.4446 66.7411 24.3602 66.437 24.3602 66.1258V43.9969L36.9695 56.133L26.8156 67.2381ZM72.0856 5.0732L58.5594 69.6275C58.5037 69.8932 58.3859 70.1384 58.2175 70.3393C58.0491 70.5401 57.8359 70.6897 57.5987 70.7733C57.3616 70.857 57.1086 70.8718 56.8647 70.8164C56.6207 70.7609 56.3941 70.6372 56.207 70.4572L25.2251 40.6382L71.8532 3.80707C71.9758 3.98576 72.0604 4.19223 72.1006 4.41131C72.1408 4.6304 72.1357 4.85656 72.0856 5.0732Z" fill="#E8DCCC"/>
</svg>
