<svg width="75" height="74" viewBox="0 0 75 74" fill="none" xmlns="http://www.w3.org/2000/svg">
<path d="M6.78573 6.69524L5.51697 5.45521L5.53201 5.44059L6.78573 6.69524ZM6.78573 67.3048L5.52894 68.5564L5.51412 68.5416L6.78573 67.3048ZM68.2143 67.3048L69.4832 68.5448L69.4682 68.5596L68.2143 67.3048ZM68.2143 6.69524L69.4711 5.44341L69.4861 5.45824L68.2143 6.69524ZM13.8333 23.2102L12.048 23.2463C12.0382 22.7728 12.2219 22.3154 12.5578 21.9772C12.8937 21.6389 13.3534 21.4483 13.8333 21.4483V23.2102ZM40.7381 52.5284H42.5239C42.5239 53.5013 41.7242 54.2903 40.7381 54.2903V52.5284ZM40.7381 42.0507H38.9524C38.9524 41.5531 39.1656 41.0788 39.5396 40.7448C39.9135 40.4107 40.4131 40.2482 40.9153 40.2976L40.7381 42.0507ZM53.0478 52.5284V54.2903C52.2714 54.2903 51.5842 53.7955 51.3475 53.0661L53.0478 52.5284ZM61.5 52.5284L63.2239 52.0685C63.3689 52.5978 63.256 53.1637 62.9182 53.5993C62.58 54.0348 62.056 54.2903 61.5 54.2903V52.5284ZM49.2857 37.8221L48.4899 39.3997C47.9082 39.1136 47.5292 38.5381 47.5017 37.8972C47.4739 37.2562 47.8017 36.6511 48.3571 36.3174L49.2857 37.8221ZM59.7143 23.1867V21.4248C60.2507 21.4248 60.7585 21.6626 61.0978 22.0726C61.4371 22.4826 61.5714 23.0213 61.4639 23.5397L59.7143 23.1867ZM52.0478 23.1867L50.3292 22.7081C50.5464 21.949 51.2482 21.4248 52.0478 21.4248V23.1867ZM40.7381 34.7916L40.9274 36.5437C40.4239 36.5969 39.921 36.4362 39.5442 36.1021C39.1674 35.7677 38.9524 35.2917 38.9524 34.7916H40.7381ZM40.7381 23.2102V21.4483C41.7242 21.4483 42.5239 22.2371 42.5239 23.2102H40.7381ZM33.0478 23.2102H31.2621C31.2621 22.2371 32.0613 21.4483 33.0478 21.4483V23.2102ZM33.0478 43.5074H34.8335C34.8335 44.0497 34.5799 44.5621 34.1467 44.8962C33.7131 45.2299 33.1481 45.3483 32.6146 45.2165L33.0478 43.5074ZM22.0238 23.2102V21.4483C22.9967 21.4483 23.7905 22.2166 23.8092 23.1763L22.0238 23.2102ZM4.96163e-07 35.5905C4.96163e-07 27.6645 -0.00374956 21.5465 0.640787 16.7951C1.29218 11.993 2.63454 8.3263 5.51697 5.45521L8.05437 7.93516C5.93683 10.0444 4.77926 12.8499 4.18065 17.2625C3.57519 21.7259 3.57143 27.5654 3.57143 35.5905H4.96163e-07ZM4.96163e-07 38.4095V35.5905H3.57143V38.4095H4.96163e-07ZM5.51412 68.5416C2.63447 65.6598 1.29222 61.9898 0.640787 57.1872C-0.00374956 52.436 4.96163e-07 46.324 4.96163e-07 38.4095H3.57143C3.57143 46.4227 3.57519 52.2563 4.18065 56.7199C4.77919 61.1321 5.93698 63.9459 8.05734 66.0679L5.51412 68.5416ZM36.0714 74C28.0384 74 21.8377 74.0039 17.0221 73.3678C12.1551 72.7251 8.43884 71.4005 5.52894 68.5564L8.04241 66.0531C10.1801 68.1424 13.0235 69.2844 17.4959 69.875C22.0195 70.4723 27.9379 70.4762 36.0714 70.4762V74ZM38.9285 74H36.0714V70.4762H38.9285V74ZM69.4682 68.5596C66.5475 71.4008 62.8275 72.7251 57.9603 73.3678C53.1446 74.0039 46.9499 74 38.9285 74V70.4762C47.0503 70.4762 52.9628 70.4723 57.4864 69.875C61.9585 69.2844 64.81 68.142 66.9607 66.0499L69.4682 68.5596ZM75 38.4095C75 46.3356 75.0039 52.4537 74.3593 57.2048C73.7078 62.0071 72.3657 65.6736 69.4832 68.5448L66.9457 66.0647C69.0632 63.9557 70.2211 61.1501 70.8196 56.7376C71.425 52.274 71.4286 46.4346 71.4286 38.4095H75ZM75 35.5905V38.4095H71.4286V35.5905H75ZM69.4861 5.45824C72.3657 8.34008 73.7078 12.0103 74.3593 16.8127C75.0039 21.5641 75 27.6761 75 35.5905H71.4286C71.4286 27.5772 71.425 21.7435 70.8196 17.2802C70.2211 12.8678 69.0632 10.0542 66.9428 7.93224L69.4861 5.45824ZM38.9285 4.89547e-07C46.9617 4.89547e-07 53.1625 -0.00369956 57.9782 0.632242C62.845 1.27495 66.5611 2.59937 69.4711 5.44341L66.9578 7.94697C64.82 5.85766 61.9768 4.71553 57.5043 4.1249C52.9807 3.52751 47.0621 3.52381 38.9285 3.52381V4.89547e-07ZM36.0714 4.89547e-07H38.9285V3.52381H36.0714V4.89547e-07ZM5.53201 5.44059C8.4528 2.59934 12.1727 1.27502 17.0399 0.632242C21.8555 -0.00369956 28.0502 4.89547e-07 36.0714 4.89547e-07V3.52381C27.9499 3.52381 22.0374 3.52751 17.5137 4.1249C13.0417 4.71546 10.1901 5.85781 8.03944 7.94989L5.53201 5.44059ZM39.7856 54.2903C31.2063 54.2903 24.2876 51.3764 19.493 45.8913C14.7339 40.447 12.244 32.6724 12.048 23.2463L15.6187 23.174C15.8037 32.0716 18.147 38.9561 22.1975 43.5899C26.2124 48.1828 32.0796 50.7665 39.7856 50.7665V54.2903ZM39.8096 54.2903H39.7856V50.7665H39.8096V54.2903ZM40.7381 54.2903H39.8096V50.7665H40.7381V54.2903ZM42.5239 42.0507V52.5284H38.9524V42.0507H42.5239ZM51.3475 53.0661C49.7117 48.0337 45.6985 44.3087 40.561 43.8041L40.9153 40.2976C47.7299 40.9675 52.7646 45.8874 54.7482 51.9903L51.3475 53.0661ZM61.5 54.2903H53.0478V50.7665H61.5V54.2903ZM58.3721 42.7664C60.6375 45.4938 62.291 48.6642 63.2239 52.0685L59.7764 52.9882C58.9753 50.0649 57.5553 47.342 55.6096 45.0001L58.3721 42.7664ZM50.0814 36.2448C53.281 37.8161 56.1068 40.0389 58.3721 42.7664L55.6096 45.0001C53.6642 42.6578 51.2378 40.749 48.4899 39.3997L50.0814 36.2448ZM57.5071 32.5903C55.5714 35.3068 53.0889 37.6001 50.2146 39.3271L48.3571 36.3174C50.8121 34.8424 52.9321 32.8835 54.5853 30.5638L57.5071 32.5903ZM61.4639 23.5397C60.7896 26.7929 59.4425 29.8739 57.5071 32.5903L54.5853 30.5638C56.2385 28.2436 57.3889 25.6121 57.965 22.8337L61.4639 23.5397ZM52.0478 21.4248H59.7143V24.9486H52.0478V21.4248ZM40.5489 33.0399C42.3221 32.8532 44.3667 31.7129 46.2321 29.7755C48.0739 27.8625 49.5778 25.334 50.3292 22.7081L53.7664 23.6653C52.8507 26.8653 51.0453 29.8928 48.8217 32.2023C46.6214 34.4875 43.8449 36.2367 40.9274 36.5437L40.5489 33.0399ZM42.5239 23.2102V34.7916H38.9524V23.2102H42.5239ZM33.0478 21.4483H40.7381V24.9721H33.0478V21.4483ZM31.2621 43.5074V23.2102H34.8335V43.5074H31.2621ZM23.8092 23.1763C24.0616 36.1282 29.7694 40.8825 33.4806 41.798L32.6146 45.2165C26.8022 43.783 20.5098 37.167 20.2385 23.244L23.8092 23.1763ZM13.8333 21.4483H22.0238V24.9721H13.8333V21.4483Z" fill="#E8DCCC"/>
</svg>
