<svg width="75" height="74" viewBox="0 0 75 74" fill="none" xmlns="http://www.w3.org/2000/svg">
<path d="M35.5261 0.0107692C29.1845 0.0824655 15.5508 1.05846 7.92515 7.61058C2.25284 12.8745 0.272355 20.657 0.0402281 30.2805C-0.152388 39.8693 -0.384516 57.8767 18.1486 62.7798V70.2477C18.1486 70.2477 18.0326 73.2359 20.1415 73.8487C22.7393 74.6189 24.2185 72.32 26.6879 69.8499L31.2934 64.9723C43.974 65.9598 53.6863 63.6841 54.805 63.3464C57.3781 62.5762 71.8713 60.8416 74.2394 42.832C76.6694 24.2326 73.0566 12.5137 66.5348 7.21278H66.4953C64.5271 5.5152 56.6175 0.117157 38.9462 0.0570249C38.9462 0.0570249 37.635 -0.0239226 35.5261 0.0107692ZM35.7434 5.23998C37.5436 5.22841 38.6376 5.30011 38.6376 5.30011C53.5949 5.33711 60.7341 9.55332 62.4182 10.9734C67.9103 15.3815 70.7402 25.9463 68.6684 41.4744C66.7002 56.5306 54.9457 57.4835 52.7701 58.1334C51.8441 58.4109 43.29 60.386 32.5133 59.7361C32.5133 59.7361 24.4877 68.8069 21.9787 71.1428C21.5811 71.5522 21.1169 71.6724 20.8206 71.6123C20.3958 71.5152 20.2674 71.0225 20.2921 70.3472L20.3686 57.953C4.65067 53.8825 5.57671 38.5233 5.74463 30.5002C5.93725 22.4772 7.54485 15.9135 12.3306 11.4683C18.7734 6.01245 30.3501 5.27698 35.7384 5.23998H35.7434ZM36.9287 13.2607C36.3879 13.2492 35.9385 13.6701 35.9385 14.1766C35.9385 14.6946 36.3879 15.104 36.9287 15.104C41.8799 15.0207 46.6534 16.7785 50.2019 20.0071C53.79 23.2705 55.5384 27.6555 55.6051 33.3889C55.6051 33.8954 56.0422 34.3163 56.5953 34.3163V34.2793C57.1361 34.2793 57.5856 33.8699 57.5856 33.3634C57.83 27.9076 55.6693 22.6067 51.6169 18.6796C47.7078 15.1017 42.7541 13.2584 36.9287 13.2584V13.2607ZM23.9123 15.3815C23.2184 15.2844 22.4973 15.4185 21.8923 15.7539H21.8404C20.502 16.4894 19.2549 17.4168 18.0721 18.6564C17.1707 19.6324 16.6818 20.62 16.5534 21.5706C16.4768 22.1372 16.5287 22.7038 16.7089 23.245L16.7731 23.282C17.7881 26.0759 19.1142 28.7633 20.7341 31.2935C22.8183 34.8459 25.389 38.1347 28.3746 41.0743L28.4635 41.1945L28.6042 41.2917L28.6931 41.3888L28.7968 41.4721C31.9478 44.2798 35.4594 46.6874 39.2673 48.6625C43.6135 50.8782 46.2508 51.9259 47.8337 52.3607V52.3838C48.298 52.5156 48.7203 52.5757 49.145 52.5757C50.4958 52.4786 51.77 51.9744 52.7726 51.1187C54.0592 50.034 55.0741 48.8429 55.8347 47.5778V47.5547C56.5928 46.2179 56.336 44.9528 55.2421 44.0971C53.0566 42.3024 50.6761 40.7112 48.1671 39.3397C46.483 38.484 44.7716 39.002 44.0777 39.8693L42.5985 41.6155C41.8404 42.4828 40.4625 42.3625 40.4625 42.3625L40.423 42.3856C30.1476 39.9271 27.4065 30.1834 27.4065 30.1834C27.4065 30.1834 27.2781 28.8581 28.2289 28.1828L30.0809 26.7859C30.9675 26.1105 31.5848 24.5101 30.6341 22.9305C29.1796 20.5691 27.4831 18.3535 25.5668 16.3043C25.1544 15.8233 24.5642 15.4972 23.9074 15.3769L23.9123 15.3815ZM38.6376 18.1291C37.3263 18.1291 37.3263 19.984 38.6499 19.984C41.9417 20.0326 45.0803 21.3092 47.3695 23.5249C49.4537 25.6804 50.5328 28.5482 50.3279 31.4508C50.3402 31.9573 50.7773 32.3666 51.3181 32.3666L51.3576 32.4152C51.8984 32.4152 52.3479 31.9943 52.3479 31.4878C52.4368 27.8128 51.2169 24.7298 48.824 22.2598C46.4188 19.7897 43.0628 18.4044 38.7783 18.1291C38.7265 18.1291 38.6894 18.1291 38.6376 18.1291ZM40.26 23.1155C38.9092 23.0785 38.8573 24.9703 40.1958 25.0074C43.4505 25.1646 45.0309 26.7049 45.2384 29.8735C45.2507 30.38 45.6878 30.7778 46.2163 30.7778H46.2558C46.8089 30.7546 47.246 30.3083 47.2065 29.7902C46.9744 25.6596 44.5691 23.3329 40.2995 23.1178C40.2871 23.1178 40.2748 23.1178 40.26 23.1178V23.1155Z" fill="#E8DCCC"/>
</svg>
