<svg width="75" height="74" viewBox="0 0 75 74" fill="none" xmlns="http://www.w3.org/2000/svg">
<path d="M2.63318 74C1.93567 74 1.27293 73.7248 0.78467 73.2431C0.122033 72.5895 -0.156798 71.6262 0.0873313 70.7317L4.4817 54.5281C1.55214 49.1613 0.0175102 43.1064 0.0175102 36.9827C0.0175102 16.5821 16.8276 0 37.5087 0C58.1899 0 75 16.5821 75 36.9827C75 57.3835 58.1899 73.9656 37.5087 73.9656C31.1962 73.9656 25.0235 72.4175 19.5131 69.4588L3.33073 73.8968C3.0866 73.9656 2.87731 74 2.63318 74ZM19.8618 64.1264C20.3151 64.1264 20.7686 64.2644 21.1871 64.4708C26.1045 67.3262 31.7542 68.8396 37.5087 68.8396C55.2953 68.8396 69.7687 54.5625 69.7687 37.0172C69.7687 19.4719 55.2953 5.19484 37.5087 5.19484C19.7222 5.19484 5.24886 19.4719 5.24886 37.0172C5.24886 42.6248 6.74847 48.0948 9.5734 52.9112C9.92216 53.496 10.0269 54.2185 9.85248 54.8721L6.36491 67.7387L19.1991 64.2296C19.4084 64.1608 19.6525 64.1264 19.8618 64.1264Z" fill="#E8DCCC"/>
<path d="M47.0651 56.8317C44.9028 56.8317 42.6708 56.35 40.3341 55.3524C38.1369 54.4235 35.9398 53.185 33.8123 51.6369C31.7198 50.1231 29.6624 48.403 27.7791 46.5453C25.8958 44.6531 24.1519 42.6578 22.6173 40.5936C21.0479 38.4263 19.7924 36.2933 18.8856 34.1947C17.9091 31.9242 17.4209 29.688 17.4209 27.555C17.4209 26.0413 17.6998 24.5964 18.223 23.2547C18.781 21.8442 19.6878 20.5712 20.8736 19.4704C23.1056 17.303 26.3143 16.5118 28.8602 17.7159C29.7321 18.0943 30.4645 18.7136 31.0226 19.5392L35.0679 25.1468C35.4864 25.6972 35.8006 26.2821 36.0447 26.8669C36.3237 27.555 36.4981 28.2431 36.4981 28.8968C36.4981 29.7912 36.2536 30.6857 35.7654 31.4769C35.4515 31.993 34.9981 32.6122 34.4052 33.1971L33.9518 33.6787C34.1611 33.9539 34.4052 34.2979 34.7889 34.7108C35.5213 35.5364 36.3234 36.4309 37.1953 37.291C38.0672 38.1166 38.9391 38.9423 39.811 39.6647C40.2295 40.0088 40.5786 40.284 40.8576 40.456L41.3455 39.9744C41.9732 39.3551 42.6014 38.8735 43.2291 38.5639C44.38 37.8414 46.1583 37.6694 47.7277 38.323C48.2857 38.5295 48.8437 38.8391 49.4366 39.2519L55.2612 43.3114C56.0634 43.8619 56.6908 44.6187 57.1093 45.4788C57.458 46.3389 57.5979 47.0957 57.5979 47.887C57.5979 48.9191 57.3534 49.9167 56.9 50.88C56.4466 51.7745 55.9235 52.5657 55.2957 53.2882C54.1797 54.4923 52.8897 55.3868 51.4946 55.9716C50.0996 56.5564 48.5996 56.8317 47.0651 56.8317ZM26.3142 22.3602C26.1049 22.3602 25.4076 22.3602 24.5357 23.2202C23.873 23.8395 23.4195 24.4932 23.1057 25.2157C22.7918 25.9381 22.6522 26.7638 22.6522 27.5895C22.6522 29.0344 23.001 30.5824 23.6985 32.2338C24.4309 33.9539 25.5121 35.7772 26.8374 37.6006C28.1975 39.4239 29.7321 41.2473 31.4411 42.933C33.1501 44.5843 34.9632 46.1324 36.8465 47.5086C38.6601 48.8159 40.5088 49.8479 42.3572 50.6392C45.0078 51.7745 47.4487 52.0497 49.4366 51.224C50.1341 50.9488 50.7619 50.4672 51.3897 49.8479C51.7035 49.5039 51.948 49.1599 52.1573 48.7126C52.2619 48.4718 52.3313 48.1966 52.3313 47.9558C52.3313 47.887 52.3313 47.7838 52.2267 47.5774L46.4025 43.5866C46.1583 43.4146 45.9142 43.277 45.7049 43.2082C45.5654 43.277 45.3565 43.3802 44.9729 43.7587L43.6476 45.066C42.6362 46.0636 41.032 46.3389 39.7416 45.8916L39.1138 45.6164C38.3117 45.2036 37.4045 44.5843 36.3931 43.7243C35.4166 42.8986 34.4753 42.0385 33.4639 41.0753C32.4874 40.0776 31.6155 39.1487 30.7785 38.1854C29.8716 37.119 29.2438 36.2589 28.8253 35.5364L28.4417 34.642C28.3371 34.2979 28.3021 33.9195 28.3021 33.5755C28.3021 32.6122 28.651 31.7521 29.3136 31.0641L30.639 29.7224C31.0226 29.344 31.1621 29.1376 31.2319 29C31.1273 28.7591 30.9878 28.5527 30.8134 28.3119L26.7327 22.6355L26.3142 22.3602Z" fill="#E8DCCC"/>
</svg>
